<?xml version="1.0" standalone="no"?>
<!DOCTYPE svg PUBLIC "-//W3C//DTD SVG 20010904//EN"
 "http://www.w3.org/TR/2001/REC-SVG-20010904/DTD/svg10.dtd">
<svg version="1.0" xmlns="http://www.w3.org/2000/svg"
 width="4500.000000pt" height="4500.000000pt" viewBox="0 0 4500.000000 4500.000000"
 preserveAspectRatio="xMidYMid meet">

<g transform="translate(0.000000,4500.000000) scale(0.100000,-0.100000)"
fill="#000000" stroke="none">
<path d="M0 22500 l0 -22500 22500 0 22500 0 0 22500 0 22500 -22500 0 -22500
0 0 -22500z m24435 4890 c1924 -1111 2017 -1165 2153 -1242 67 -39 122 -73
122 -77 -1 -5 -206 -125 -1225 -711 -110 -64 -290 -168 -400 -232 -194 -111
-1006 -580 -2080 -1200 -286 -165 -576 -333 -645 -373 -550 -319 -1245 -718
-1254 -719 -6 0 -270 148 -586 331 -316 182 -858 495 -1204 695 -346 200 -629
367 -629 372 1 6 61 45 134 87 74 42 344 198 601 347 l468 270 167 -97 c570
-330 1041 -601 1047 -601 5 0 447 254 1711 985 193 111 584 337 870 502 286
165 537 311 558 323 l38 22 -168 97 c-92 54 -334 193 -538 311 -203 117 -400
231 -437 252 l-66 39 -289 -166 c-158 -92 -328 -190 -378 -219 -252 -148
-1274 -736 -1289 -742 -15 -6 -16 47 -14 696 l3 702 975 564 c595 344 983 563
995 561 11 -2 623 -352 1360 -777z m1333 -3574 c147 -85 341 -197 432 -250 91
-53 243 -140 337 -193 95 -54 173 -101 173 -104 0 -4 -51 -36 -112 -71 -62
-36 -518 -299 -1013 -585 -495 -286 -1453 -840 -2130 -1230 -676 -390 -1481
-855 -1788 -1032 -307 -177 -565 -320 -572 -317 -8 3 -249 141 -537 307 -603
348 -800 462 -1133 654 -132 76 -334 193 -450 260 -115 67 -229 132 -252 145
-24 13 -43 26 -43 30 0 3 44 31 98 62 53 31 194 112 312 180 118 68 339 195
490 283 151 87 282 163 292 168 13 9 49 -8 175 -80 87 -51 360 -208 607 -351
l449 -259 256 147 c141 81 342 197 446 257 105 61 496 287 870 503 700 403
737 425 1380 797 209 121 558 323 775 448 217 126 456 264 530 307 74 43 136
78 138 78 1 0 123 -69 270 -154z m-9248 -5421 c116 -37 153 -60 241 -153 78
-81 109 -129 349 -545 56 -98 104 -176 106 -174 2 2 5 203 7 446 2 380 4 443
17 451 20 13 286 13 311 0 19 -10 19 -30 19 -788 0 -592 -3 -781 -12 -790 -8
-8 -59 -12 -165 -12 l-152 0 -24 48 c-21 43 -202 375 -415 762 -69 125 -164
264 -224 326 -70 74 -134 105 -229 112 -79 5 -104 -6 -127 -56 -15 -33 -17
-102 -20 -602 -2 -374 -7 -569 -14 -577 -8 -10 -53 -13 -164 -13 l-154 0 -10
26 c-13 33 -13 1095 0 1216 19 190 74 276 203 322 93 33 109 35 252 31 97 -2
136 -8 205 -30z m1767 5 c10 -19 13 -137 13 -495 0 -439 2 -473 19 -512 56
-123 237 -214 426 -215 190 -1 380 96 435 223 21 50 21 59 20 517 0 411 1 470
15 490 15 21 22 22 156 22 78 0 149 -5 160 -10 19 -11 19 -25 18 -498 -1 -546
-3 -566 -68 -697 -68 -137 -192 -261 -325 -324 -113 -55 -219 -74 -406 -73
-285 0 -440 54 -593 205 -82 82 -134 162 -171 267 l-31 85 -3 510 c-3 478 -2
510 15 523 13 9 56 12 162 10 144 -3 146 -3 158 -28z m2838 18 c137 -28 261
-124 317 -244 28 -59 32 -81 36 -174 3 -79 0 -121 -12 -162 -21 -75 -83 -151
-147 -184 l-51 -25 40 -20 c58 -29 111 -85 140 -148 34 -73 42 -215 18 -312
-30 -119 -139 -238 -264 -290 l-57 -24 -620 -3 c-573 -3 -621 -1 -632 14 -10
13 -13 190 -13 785 0 690 1 769 16 783 14 15 77 16 597 16 367 -1 600 -5 632
-12z m1005 2 c13 -8 16 -55 20 -289 5 -262 6 -281 26 -308 50 -69 132 -82 541
-83 l253 0 4 23 c5 24 12 73 56 412 24 179 34 233 47 243 21 15 265 17 294 2
10 -6 19 -21 19 -34 0 -51 -120 -928 -135 -987 -36 -142 -92 -258 -173 -362
-78 -99 -185 -164 -319 -192 -91 -19 -932 -22 -951 -3 -17 17 -17 302 1 316 7
6 154 12 402 14 366 4 394 6 455 26 36 12 88 36 114 53 47 31 115 112 116 136
0 9 -89 13 -347 15 -319 4 -354 6 -426 26 -143 39 -194 77 -246 180 -69 137
-74 168 -79 496 -4 280 -3 301 14 313 21 16 290 18 314 3z m3191 0 c17 -10 19
-23 19 -165 0 -142 -2 -155 -19 -165 -12 -6 -129 -10 -310 -10 l-291 0 -2
-622 -3 -623 -154 -3 c-104 -2 -158 1 -167 9 -12 10 -14 115 -14 625 l0 614
-301 0 c-188 0 -308 4 -320 10 -17 10 -19 23 -19 165 0 136 2 155 18 164 24
14 1536 15 1563 1z m1897 -2 c8 -8 12 -59 12 -165 0 -140 -2 -153 -19 -163
-13 -6 -227 -10 -625 -10 l-606 0 0 -145 0 -145 329 0 c268 0 331 -3 340 -14
8 -9 11 -60 9 -157 l-3 -144 -337 -3 -338 -2 0 -150 0 -150 623 -2 622 -3 0
-165 0 -165 -787 -3 c-775 -2 -787 -2 -798 18 -7 13 -10 263 -8 790 3 672 5
772 18 780 24 15 1553 13 1568 -2z m1792 2 c19 -10 20 -22 20 -165 0 -142 -2
-155 -19 -165 -13 -6 -186 -10 -493 -10 -518 0 -547 -3 -638 -58 -82 -50 -75
-108 19 -160 72 -41 170 -51 478 -52 321 0 383 -8 503 -67 185 -90 289 -275
260 -463 -34 -214 -224 -385 -485 -435 -53 -11 -194 -14 -583 -15 l-512 0 -9
23 c-12 32 -13 275 -1 298 9 16 46 18 492 22 504 4 530 6 615 50 43 23 73 64
73 100 0 44 -56 92 -138 118 -60 19 -102 22 -377 29 -338 8 -375 14 -495 72
-89 43 -181 136 -222 224 -58 125 -49 282 24 396 73 116 217 210 368 242 108
23 101 22 623 24 319 2 484 -1 497 -8z"/>
<path d="M20230 17935 l0 -145 398 0 c370 0 400 2 439 20 60 27 85 71 80 138
-3 38 -10 59 -28 78 -48 53 -57 54 -489 54 l-400 0 0 -145z"/>
<path d="M20230 17320 l0 -151 408 3 c386 3 409 4 440 23 46 27 72 73 72 125
0 52 -26 98 -72 125 -31 19 -54 20 -440 23 l-408 3 0 -151z"/>
</g>
</svg>
