<?xml version="1.0" standalone="no"?>
<!DOCTYPE svg PUBLIC "-//W3C//DTD SVG 20010904//EN"
 "http://www.w3.org/TR/2001/REC-SVG-20010904/DTD/svg10.dtd">
<svg version="1.0" xmlns="http://www.w3.org/2000/svg"
 width="1330.000000pt" height="1136.000000pt" viewBox="0 0 1330.000000 1136.000000"
 preserveAspectRatio="xMidYMid meet">

<g transform="translate(0.000000,1136.000000) scale(0.100000,-0.100000)"
fill="#000000" stroke="none">
<path d="M6235 10792 l-980 -567 -3 -703 c-1 -386 0 -702 2 -702 3 0 443 253
978 562 535 309 979 562 988 562 8 1 284 -154 613 -344 l597 -344 -28 -17
c-118 -73 -3139 -1812 -3148 -1812 -7 0 -282 156 -613 347 l-602 347 -604
-348 c-332 -191 -604 -351 -605 -354 0 -4 543 -321 1208 -704 1073 -620 1210
-696 1232 -688 21 8 2153 1237 4944 2850 351 203 638 373 638 378 -1 9 -3620
2105 -3632 2104 -3 0 -446 -255 -985 -567z"/>
<path d="M9030 6799 c-2116 -1227 -3774 -2180 -3785 -2175 -8 3 -279 158 -604
345 -324 188 -595 341 -603 341 -19 -1 -1200 -685 -1201 -696 0 -5 543 -323
1208 -707 l1208 -697 51 29 c28 15 1095 631 2371 1368 1276 736 2515 1451
2752 1589 238 137 433 251 433 254 0 8 -1190 695 -1209 697 -9 1 -288 -155
-621 -348z"/>
<path d="M261 1595 c-141 -40 -206 -105 -238 -243 -16 -70 -18 -133 -18 -700
0 -543 2 -624 15 -632 24 -15 305 -13 318 3 7 8 12 203 14 577 3 489 5 570 19
600 25 55 43 65 114 62 141 -4 227 -65 352 -253 65 -97 533 -939 533 -959 0
-5 7 -16 16 -24 13 -13 41 -16 155 -16 78 0 149 5 160 10 19 10 19 30 19 788
0 592 -3 781 -12 790 -17 17 -314 17 -325 0 -4 -7 -10 -212 -13 -456 l-5 -443
-149 258 c-211 364 -235 399 -335 496 -86 82 -92 86 -187 118 -89 29 -113 33
-239 36 -103 2 -154 -1 -194 -12z"/>
<path d="M2112 1598 c-9 -9 -12 -128 -12 -498 0 -452 1 -492 20 -564 31 -124
82 -208 185 -311 101 -102 180 -149 310 -187 72 -21 100 -23 285 -23 234 0
279 9 417 77 136 66 266 202 328 341 52 118 55 159 55 674 0 359 -3 482 -12
491 -8 8 -58 12 -159 12 -141 0 -149 -1 -163 -22 -14 -20 -16 -83 -16 -493 l0
-470 -24 -51 c-55 -119 -247 -214 -431 -214 -184 0 -364 92 -421 215 l-24 50
0 465 c0 354 -3 471 -13 490 -12 25 -14 25 -163 28 -108 2 -153 -1 -162 -10z"/>
<path d="M4040 1591 c-7 -13 -10 -276 -10 -785 0 -682 2 -766 16 -780 14 -14
82 -16 597 -16 635 0 658 2 761 58 76 41 152 120 189 199 31 65 32 73 32 193
0 117 -2 129 -29 188 -31 67 -72 109 -138 143 l-42 21 52 25 c60 28 105 81
138 161 32 78 34 224 3 314 -47 140 -161 244 -312 284 -41 11 -175 14 -649 14
-580 0 -598 -1 -608 -19z m1138 -332 c134 -28 167 -191 53 -262 -35 -22 -42
-22 -443 -25 l-408 -3 0 150 0 151 375 0 c224 0 394 -4 423 -11z m39 -629
c109 -49 110 -198 3 -252 -32 -16 -74 -18 -437 -18 l-403 0 0 145 0 145 398 0
c370 0 400 -2 439 -20z"/>
<path d="M5962 1598 c-18 -18 -16 -513 2 -611 23 -119 71 -223 131 -284 44
-43 64 -55 133 -77 120 -38 217 -46 534 -46 159 0 288 -2 288 -5 0 -35 -93
-132 -157 -164 -95 -47 -134 -51 -531 -51 -238 0 -380 -4 -393 -10 -17 -10
-19 -23 -19 -165 0 -145 1 -155 21 -165 14 -8 155 -10 467 -8 487 4 497 6 620
66 107 52 220 179 282 316 59 129 77 219 141 709 53 398 61 478 50 491 -19 22
-292 24 -310 2 -7 -8 -30 -151 -52 -318 -21 -166 -42 -313 -44 -326 l-6 -23
-342 3 c-326 3 -344 4 -389 25 -82 38 -82 39 -88 353 -3 151 -9 281 -13 288
-11 17 -308 17 -325 0z"/>
<path d="M7902 1598 c-13 -13 -18 -281 -6 -312 5 -14 43 -16 320 -16 l314 0 0
-618 c0 -467 3 -621 12 -630 17 -17 299 -17 316 0 9 9 12 163 12 630 l0 618
298 0 c218 0 301 3 310 12 8 8 12 58 12 158 0 100 -4 150 -12 158 -17 17
-1559 17 -1576 0z"/>
<path d="M9790 1591 c-7 -13 -10 -275 -10 -785 0 -682 2 -766 16 -780 14 -14
99 -16 788 -16 587 0 775 3 784 12 8 8 12 59 12 165 0 140 -2 153 -19 163 -13
6 -227 10 -625 10 l-606 0 0 145 0 145 329 0 c268 0 331 3 340 14 8 9 11 60 9
157 l-3 144 -337 3 -338 2 0 150 0 150 623 2 622 3 0 165 0 165 -787 3 c-770
2 -787 2 -798 -17z"/>
<path d="M12115 1604 c-167 -34 -231 -60 -318 -125 -285 -213 -235 -613 94
-764 112 -51 155 -56 484 -65 194 -5 325 -12 350 -20 174 -53 206 -158 69
-228 -76 -38 -129 -42 -604 -42 -452 0 -460 0 -481 -21 -19 -19 -20 -30 -17
-165 2 -115 6 -147 18 -155 10 -6 207 -8 540 -6 505 3 528 4 605 25 250 69
410 234 440 453 8 61 -17 176 -51 240 -34 61 -131 154 -201 192 -112 60 -175
69 -553 77 -190 4 -359 12 -375 17 -87 29 -145 75 -145 114 0 23 36 67 70 84
87 45 123 48 640 54 l495 6 3 154 c2 104 -1 158 -9 167 -9 12 -98 14 -523 13
-281 -1 -520 -3 -531 -5z"/>
</g>
</svg>
